<svg width="24" height="25" viewBox="0 0 24 25" fill="none" xmlns="http://www.w3.org/2000/svg">
<g clip-path="url(#clip0_72_302)">
<path d="M12 24.5C18.6274 24.5 24 19.1274 24 12.5C24 5.87258 18.6274 0.5 12 0.5C5.37258 0.5 0 5.87258 0 12.5C0 19.1274 5.37258 24.5 12 24.5Z" fill="#F4F6F5"/>
<path d="M17.291 7.20865C16.0425 5.9477 14.3845 5.17439 12.616 5.02823C10.8476 4.88206 9.08512 5.37266 7.64654 6.41153C6.20795 7.45039 5.18796 8.96914 4.77054 10.6938C4.35311 12.4185 4.56574 14.2356 5.37007 15.8173L4.58052 19.6505C4.57233 19.6886 4.5721 19.7281 4.57984 19.7663C4.58758 19.8045 4.60313 19.8408 4.62552 19.8727C4.65832 19.9212 4.70513 19.9586 4.75971 19.9798C4.81429 20.001 4.87404 20.005 4.93098 19.9914L8.68779 19.1009C10.2651 19.8849 12.0693 20.0838 13.7795 19.6624C15.4897 19.2409 16.9949 18.2264 18.0273 16.7993C19.0597 15.3723 19.5523 13.6252 19.4174 11.869C19.2826 10.1128 18.5291 8.46142 17.291 7.20865ZM16.1196 16.5577C15.2558 17.4191 14.1434 17.9878 12.9393 18.1835C11.7352 18.3792 10.5 18.1921 9.40779 17.6487L8.88416 17.3896L6.58098 17.935L6.58779 17.9064L7.06507 15.5882L6.8087 15.0823C6.25065 13.9863 6.05379 12.7418 6.24632 11.5271C6.43885 10.3123 7.0109 9.18972 7.88052 8.32002C8.97321 7.22767 10.455 6.61402 12.0001 6.61402C13.5451 6.61402 15.0269 7.22767 16.1196 8.32002C16.1289 8.33069 16.1389 8.34071 16.1496 8.35002C17.2288 9.44518 17.8312 10.9226 17.8256 12.4601C17.8199 13.9976 17.2067 15.4705 16.1196 16.5577Z" fill="#132A32"/>
<path d="M15.9147 14.8567C15.6325 15.3013 15.1865 15.8454 14.6261 15.9804C13.6443 16.2176 12.1375 15.9885 10.2625 14.2404L10.2393 14.2199C8.59063 12.6913 8.16245 11.419 8.26609 10.4099C8.32336 9.83718 8.80063 9.319 9.20291 8.98082C9.26651 8.92654 9.34192 8.88789 9.42313 8.86797C9.50433 8.84805 9.58907 8.84741 9.67057 8.86609C9.75207 8.88478 9.82806 8.92227 9.89248 8.97558C9.9569 9.02889 10.0079 9.09653 10.0415 9.17309L10.6484 10.5367C10.6878 10.6251 10.7024 10.7226 10.6906 10.8187C10.6789 10.9148 10.6412 11.0059 10.5815 11.0822L10.2747 11.4804C10.2089 11.5626 10.1692 11.6626 10.1607 11.7676C10.1522 11.8726 10.1753 11.9777 10.227 12.0695C10.3988 12.3708 10.8106 12.814 11.2675 13.2245C11.7802 13.6881 12.3488 14.1122 12.7088 14.2567C12.8051 14.2961 12.9111 14.3057 13.0129 14.2843C13.1147 14.2629 13.2078 14.2115 13.2802 14.1367L13.6361 13.7781C13.7048 13.7104 13.7902 13.6621 13.8836 13.6381C13.977 13.6142 14.0751 13.6154 14.1679 13.6417L15.6093 14.0508C15.6888 14.0752 15.7617 14.1175 15.8223 14.1743C15.883 14.2312 15.9299 14.3012 15.9594 14.379C15.9888 14.4567 16.0001 14.5402 15.9924 14.623C15.9847 14.7058 15.9581 14.7858 15.9147 14.8567Z" fill="#132A32"/>
</g>
<defs>
<clipPath id="clip0_72_302">
<rect width="24" height="24" fill="white" transform="translate(0 0.5)"/>
</clipPath>
</defs>
</svg>
