<svg width="24" height="25" viewBox="0 0 24 25" fill="none" xmlns="http://www.w3.org/2000/svg">
<g clip-path="url(#clip0_72_282)">
<path d="M12 24.5C18.6274 24.5 24 19.1274 24 12.5C24 5.87258 18.6274 0.5 12 0.5C5.37258 0.5 0 5.87258 0 12.5C0 19.1274 5.37258 24.5 12 24.5Z" fill="#F4F6F5"/>
<path d="M18.5376 6.7043L18.2894 6.7943L4.81942 11.6475C4.72397 11.677 4.641 11.7374 4.58354 11.8191C4.52607 11.9008 4.49734 11.9993 4.50187 12.0991C4.50639 12.1989 4.5439 12.2944 4.60853 12.3706C4.67315 12.4468 4.76123 12.4994 4.85897 12.5202L8.34579 13.4748L8.99624 15.3838L9.6467 17.2929C9.68406 17.3865 9.74371 17.4696 9.82046 17.5349C9.8972 17.6002 9.98873 17.6458 10.0871 17.6677C10.1855 17.6896 10.2877 17.6871 10.3849 17.6606C10.4821 17.634 10.5713 17.5841 10.6449 17.5152L12.4462 15.8134L15.9835 18.212C16.4158 18.5066 17.0322 18.2884 17.1426 17.8029L19.4853 7.45158C19.5999 6.93885 19.0599 6.51748 18.5376 6.7043ZM16.8181 9.00203L10.7322 13.9766L10.4458 14.2111C10.3829 14.261 10.3418 14.3334 10.3312 14.4129L10.2672 14.942L10.0912 16.4284C10.0927 16.4465 10.0869 16.4644 10.0751 16.4782C10.0634 16.492 10.0466 16.5006 10.0285 16.502C10.0104 16.5035 9.99251 16.4977 9.9787 16.4859C9.9649 16.4742 9.95633 16.4574 9.95488 16.4393L9.45988 14.9543L8.94851 13.4338C8.92689 13.3655 8.92976 13.2918 8.95664 13.2253C8.98352 13.1589 9.03273 13.1038 9.09579 13.0698L15.4285 9.43976L16.6203 8.75794C16.7935 8.65703 16.9708 8.87658 16.8181 9.00203Z" fill="#132A32"/>
</g>
<defs>
<clipPath id="clip0_72_282">
<rect width="24" height="24" fill="white" transform="translate(0 0.5)"/>
</clipPath>
</defs>
</svg>
