<svg width="24" height="25" viewBox="0 0 24 25" fill="none" xmlns="http://www.w3.org/2000/svg">
<g clip-path="url(#clip0_72_292)">
<path d="M24.0007 12.5C24.0007 5.87258 18.6281 0.5 12.0007 0.5C5.37332 0.5 0.000732422 5.87258 0.000732422 12.5C0.000732422 19.1274 5.37332 24.5 12.0007 24.5C18.6281 24.5 24.0007 19.1274 24.0007 12.5Z" fill="#F4F6F5"/>
<path d="M14.843 6.18457H9.1588C8.23753 6.18457 7.35398 6.55055 6.70254 7.20199C6.0511 7.85343 5.68512 8.73698 5.68512 9.65826V15.3425C5.68512 16.2637 6.0511 17.1473 6.70254 17.7987C7.35398 18.4502 8.23753 18.8162 9.1588 18.8162H14.843C15.7643 18.8162 16.6478 18.4502 17.2993 17.7987C17.9507 17.1473 18.3167 16.2637 18.3167 15.3425V9.65826C18.3167 8.73698 17.9507 7.85343 17.2993 7.20199C16.6478 6.55055 15.7643 6.18457 14.843 6.18457ZM17.2114 14.8435C17.2114 15.604 16.9093 16.3333 16.3716 16.8711C15.8339 17.4088 15.1045 17.7109 14.3441 17.7109H9.65775C8.89728 17.7109 8.16795 17.4088 7.63022 16.8711C7.09248 16.3333 6.79038 15.604 6.79038 14.8435V10.1572C6.79038 9.39673 7.09248 8.6674 7.63022 8.12967C8.16795 7.59193 8.89728 7.28983 9.65775 7.28983H14.3441C15.1045 7.28983 15.8339 7.59193 16.3716 8.12967C16.9093 8.6674 17.2114 9.39673 17.2114 10.1572V14.8435Z" fill="#132A32"/>
<path d="M14.3044 10.221L14.2744 10.191L14.2492 10.1657C13.6522 9.57079 12.8436 9.23691 12.0008 9.23731C11.5751 9.2402 11.1543 9.32692 10.7622 9.49252C10.3701 9.65813 10.0145 9.89936 9.71562 10.2024C9.41679 10.5055 9.1806 10.8645 9.02056 11.2589C8.86051 11.6533 8.77974 12.0754 8.78286 12.501C8.78222 13.3648 9.1227 14.1938 9.73023 14.8078C10.0278 15.109 10.3824 15.3479 10.7733 15.5106C11.1643 15.6733 11.5837 15.7564 12.0071 15.7552C12.6422 15.7419 13.2597 15.544 13.7843 15.1858C14.3089 14.8275 14.7179 14.3244 14.9615 13.7377C15.205 13.151 15.2726 12.5061 15.1559 11.8816C15.0393 11.2572 14.7434 10.6802 14.3044 10.221ZM12.0008 14.642C11.5761 14.648 11.1592 14.5275 10.8032 14.2959C10.4472 14.0643 10.1681 13.732 10.0014 13.3413C9.83476 12.9507 9.78806 12.5193 9.86725 12.102C9.94645 11.6847 10.148 11.3004 10.4462 10.998C10.7444 10.6955 11.1258 10.4886 11.5419 10.4035C11.958 10.3185 12.39 10.3591 12.783 10.5202C13.176 10.6813 13.5122 10.9557 13.7488 11.3084C13.9854 11.6611 14.1118 12.0763 14.1118 12.501C14.1139 12.7802 14.0609 13.0571 13.9559 13.3159C13.851 13.5746 13.696 13.8101 13.5 14.009C13.3039 14.2078 13.0706 14.3661 12.8134 14.4747C12.5561 14.5833 12.28 14.6402 12.0008 14.642Z" fill="#132A32"/>
<path d="M16.1743 9.08618C16.1751 9.1875 16.156 9.28799 16.1179 9.3819C16.0798 9.47581 16.0236 9.56128 15.9525 9.63344C15.8814 9.7056 15.7967 9.76302 15.7034 9.80241C15.61 9.84181 15.5098 9.86241 15.4085 9.86303C15.308 9.86298 15.2086 9.843 15.1159 9.80424C15.0232 9.76548 14.9391 9.70872 14.8685 9.63724C14.7615 9.52871 14.6888 9.39117 14.6592 9.24167C14.6297 9.09217 14.6447 8.9373 14.7024 8.79625C14.76 8.65519 14.8578 8.53417 14.9836 8.44818C15.1094 8.36219 15.2577 8.31501 15.4101 8.3125C15.5884 8.31247 15.7611 8.37505 15.898 8.48934L15.9138 8.50513C15.9392 8.52586 15.9625 8.54914 15.9832 8.57461L16.0006 8.59355C16.1136 8.73279 16.175 8.90685 16.1743 9.08618Z" fill="#132A32"/>
</g>
<defs>
<clipPath id="clip0_72_292">
<rect width="24" height="24" fill="white" transform="translate(0 0.5)"/>
</clipPath>
</defs>
</svg>
